# xmcd
#
# Track frame offsets: 
#        150
#        10140
#        22400
#        35377
#        45055
#        56140
#        68577
#        80012
#        92632
#        104265
#        114212
#        126852
#        136960
#        148560
#        160785
#        175975
#        189410
#        199732
#        213392
#        225557
#
# Disc length: 3237 seconds
#
# Revision: 9
# Processed by: cddbd v1.5.2PL0 Copyright (c) Steve Scherf et al.
# Submitted via: ExactAudioCopy v1.0b3
#
DISCID=0a0ca314
DTITLE=John Lee Hooker - 20 Greatest Hits: Trouble Blues
DYEAR=1991
DGENRE=Blues
TTITLE0=Dimples
TTITLE1=Whiskey And Wimmen
TTITLE2=I'm So Excited
TTITLE3=Onions
TTITLE4=No Shoes
TTITLE5=Drug Store Woman
TTITLE6=Boom Boom
TTITLE7=Hobo Blues
TTITLE8=Little Wheel
TTITLE9=Dusty Road
TTITLE10=Baby Lee
TTITLE11=Want-Ad Blues
TTITLE12=Boogie Chillun
TTITLE13=Crawlin' King Snake
TTITLE14=Tupelo
TTITLE15=Trouble Blues
TTITLE16=Maudie
TTITLE17=Time Is Marching
TTITLE18=I'm in the Mood
TTITLE19=Blues Before Sunrise
EXTD=
EXTT0=
EXTT1=
EXTT2=
EXTT3=
EXTT4=
EXTT5=
EXTT6=
EXTT7=
EXTT8=
EXTT9=
EXTT10=
EXTT11=
EXTT12=
EXTT13=
EXTT14=
EXTT15=
EXTT16=
EXTT17=
EXTT18=
EXTT19=
PLAYORDER=
